<mxfile host="app.diagrams.net" modified="2022-04-29T12:38:22.088Z" agent="5.0 (Windows NT 10.0; Win64; x64) AppleWebKit/537.36 (KHTML, like Gecko) Chrome/100.0.4896.127 Safari/537.36 Edg/100.0.1185.50" etag="Jo52stbaiGpcFP4ULmP_" version="17.4.6" type="github">
  <diagram id="plRn1aiUvMoMQZw8SFaH" name="Page-1">
    <mxGraphModel dx="1038" dy="579" grid="1" gridSize="10" guides="1" tooltips="1" connect="1" arrows="1" fold="1" page="1" pageScale="1" pageWidth="850" pageHeight="1100" math="0" shadow="0">
      <root>
        <mxCell id="0" />
        <mxCell id="1" parent="0" />
        <mxCell id="99mRXsAWQatH8PVyjtxt-3" value="" style="edgeStyle=orthogonalEdgeStyle;rounded=0;orthogonalLoop=1;jettySize=auto;html=1;" edge="1" parent="1" source="99mRXsAWQatH8PVyjtxt-1" target="99mRXsAWQatH8PVyjtxt-2">
          <mxGeometry relative="1" as="geometry" />
        </mxCell>
        <mxCell id="99mRXsAWQatH8PVyjtxt-1" value="start" style="rounded=1;whiteSpace=wrap;html=1;" vertex="1" parent="1">
          <mxGeometry x="80" y="30" width="90" height="20" as="geometry" />
        </mxCell>
        <mxCell id="99mRXsAWQatH8PVyjtxt-6" value="" style="edgeStyle=orthogonalEdgeStyle;rounded=0;orthogonalLoop=1;jettySize=auto;html=1;" edge="1" parent="1" source="99mRXsAWQatH8PVyjtxt-2" target="99mRXsAWQatH8PVyjtxt-4">
          <mxGeometry relative="1" as="geometry" />
        </mxCell>
        <mxCell id="99mRXsAWQatH8PVyjtxt-2" value="&lt;span&gt;FOR pop grp&amp;nbsp;&lt;/span&gt;&lt;span style=&quot;color: rgba(0 , 0 , 0 , 0) ; font-family: monospace ; font-size: 0px&quot;&gt;%3CmxGraphModel%3E%3Croot%3E%3CmxCell%20id%3D%220%22%2F%3E%3CmxCell%20id%3D%221%22%20parent%3D%220%22%2F%3E%3CmxCell%20id%3D%222%22%20value%3D%22set%20the%20agent%20max%20speed%22%20style%3D%22rounded%3D1%3BwhiteSpace%3Dwrap%3Bhtml%3D1%3BfillColor%3D%23ffcc99%3BstrokeColor%3D%2336393d%3B%22%20vertex%3D%221%22%20parent%3D%221%22%3E%3CmxGeometry%20x%3D%22240%22%20y%3D%22220%22%20width%3D%22120%22%20height%3D%2260%22%20as%3D%22geometry%22%2F%3E%3C%2FmxCell%3E%3C%2Froot%3E%3C%2FmxGraphModel%3E&lt;/span&gt;" style="rhombus;whiteSpace=wrap;html=1;" vertex="1" parent="1">
          <mxGeometry x="85" y="100" width="80" height="80" as="geometry" />
        </mxCell>
        <mxCell id="99mRXsAWQatH8PVyjtxt-7" style="edgeStyle=orthogonalEdgeStyle;rounded=0;orthogonalLoop=1;jettySize=auto;html=1;entryX=0;entryY=0.5;entryDx=0;entryDy=0;" edge="1" parent="1" source="99mRXsAWQatH8PVyjtxt-4" target="99mRXsAWQatH8PVyjtxt-2">
          <mxGeometry relative="1" as="geometry">
            <Array as="points">
              <mxPoint x="45" y="240" />
              <mxPoint x="45" y="140" />
            </Array>
          </mxGeometry>
        </mxCell>
        <mxCell id="99mRXsAWQatH8PVyjtxt-8" value="next pop" style="edgeLabel;html=1;align=center;verticalAlign=middle;resizable=0;points=[];" vertex="1" connectable="0" parent="99mRXsAWQatH8PVyjtxt-7">
          <mxGeometry x="0.055" y="-2" relative="1" as="geometry">
            <mxPoint as="offset" />
          </mxGeometry>
        </mxCell>
        <mxCell id="99mRXsAWQatH8PVyjtxt-10" value="" style="edgeStyle=orthogonalEdgeStyle;rounded=0;orthogonalLoop=1;jettySize=auto;html=1;" edge="1" parent="1" source="99mRXsAWQatH8PVyjtxt-4" target="99mRXsAWQatH8PVyjtxt-9">
          <mxGeometry relative="1" as="geometry" />
        </mxCell>
        <mxCell id="99mRXsAWQatH8PVyjtxt-4" value="set the agent max speed as 0" style="rounded=1;whiteSpace=wrap;html=1;fillColor=#ffcc99;strokeColor=#36393d;" vertex="1" parent="1">
          <mxGeometry x="65" y="210" width="120" height="60" as="geometry" />
        </mxCell>
        <mxCell id="99mRXsAWQatH8PVyjtxt-12" value="" style="edgeStyle=orthogonalEdgeStyle;rounded=0;orthogonalLoop=1;jettySize=auto;html=1;" edge="1" parent="1" source="99mRXsAWQatH8PVyjtxt-9" target="99mRXsAWQatH8PVyjtxt-11">
          <mxGeometry relative="1" as="geometry" />
        </mxCell>
        <mxCell id="99mRXsAWQatH8PVyjtxt-9" value="construct the pop threshold anim req object" style="rounded=0;whiteSpace=wrap;html=1;" vertex="1" parent="1">
          <mxGeometry x="65" y="310" width="120" height="60" as="geometry" />
        </mxCell>
        <mxCell id="99mRXsAWQatH8PVyjtxt-14" style="edgeStyle=orthogonalEdgeStyle;rounded=0;orthogonalLoop=1;jettySize=auto;html=1;entryX=0.5;entryY=0;entryDx=0;entryDy=0;" edge="1" parent="1" source="99mRXsAWQatH8PVyjtxt-11" target="99mRXsAWQatH8PVyjtxt-13">
          <mxGeometry relative="1" as="geometry" />
        </mxCell>
        <mxCell id="99mRXsAWQatH8PVyjtxt-11" value="call set animation for set the animation to grp" style="rounded=1;whiteSpace=wrap;html=1;fillColor=#f8cecc;gradientColor=#ea6b66;strokeColor=#b85450;" vertex="1" parent="1">
          <mxGeometry x="65" y="400" width="120" height="60" as="geometry" />
        </mxCell>
        <mxCell id="99mRXsAWQatH8PVyjtxt-18" value="" style="edgeStyle=orthogonalEdgeStyle;rounded=0;orthogonalLoop=1;jettySize=auto;html=1;" edge="1" parent="1" source="99mRXsAWQatH8PVyjtxt-13" target="99mRXsAWQatH8PVyjtxt-17">
          <mxGeometry relative="1" as="geometry" />
        </mxCell>
        <mxCell id="99mRXsAWQatH8PVyjtxt-13" value="TIMEOUT 4 SEC" style="rhombus;whiteSpace=wrap;html=1;" vertex="1" parent="1">
          <mxGeometry x="270" y="30" width="80" height="80" as="geometry" />
        </mxCell>
        <mxCell id="99mRXsAWQatH8PVyjtxt-20" value="" style="edgeStyle=orthogonalEdgeStyle;rounded=0;orthogonalLoop=1;jettySize=auto;html=1;" edge="1" parent="1" source="99mRXsAWQatH8PVyjtxt-17" target="99mRXsAWQatH8PVyjtxt-19">
          <mxGeometry relative="1" as="geometry" />
        </mxCell>
        <mxCell id="99mRXsAWQatH8PVyjtxt-17" value="FOR pop grp" style="rhombus;whiteSpace=wrap;html=1;" vertex="1" parent="1">
          <mxGeometry x="270" y="150" width="80" height="80" as="geometry" />
        </mxCell>
        <mxCell id="99mRXsAWQatH8PVyjtxt-21" style="edgeStyle=orthogonalEdgeStyle;rounded=0;orthogonalLoop=1;jettySize=auto;html=1;entryX=1;entryY=0.5;entryDx=0;entryDy=0;" edge="1" parent="1" source="99mRXsAWQatH8PVyjtxt-19" target="99mRXsAWQatH8PVyjtxt-17">
          <mxGeometry relative="1" as="geometry">
            <Array as="points">
              <mxPoint x="310" y="350" />
              <mxPoint x="390" y="350" />
              <mxPoint x="390" y="190" />
            </Array>
          </mxGeometry>
        </mxCell>
        <mxCell id="99mRXsAWQatH8PVyjtxt-22" value="next pop" style="edgeLabel;html=1;align=center;verticalAlign=middle;resizable=0;points=[];" vertex="1" connectable="0" parent="99mRXsAWQatH8PVyjtxt-21">
          <mxGeometry x="0.4093" y="-1" relative="1" as="geometry">
            <mxPoint as="offset" />
          </mxGeometry>
        </mxCell>
        <mxCell id="99mRXsAWQatH8PVyjtxt-24" value="" style="edgeStyle=orthogonalEdgeStyle;rounded=0;orthogonalLoop=1;jettySize=auto;html=1;" edge="1" parent="1" source="99mRXsAWQatH8PVyjtxt-19" target="99mRXsAWQatH8PVyjtxt-23">
          <mxGeometry relative="1" as="geometry" />
        </mxCell>
        <mxCell id="99mRXsAWQatH8PVyjtxt-19" value="set the agent max speed&amp;nbsp;" style="rounded=1;whiteSpace=wrap;html=1;fillColor=#ffcc99;strokeColor=#36393d;" vertex="1" parent="1">
          <mxGeometry x="250" y="270" width="120" height="60" as="geometry" />
        </mxCell>
        <mxCell id="99mRXsAWQatH8PVyjtxt-26" value="" style="edgeStyle=orthogonalEdgeStyle;rounded=0;orthogonalLoop=1;jettySize=auto;html=1;" edge="1" parent="1" source="99mRXsAWQatH8PVyjtxt-23" target="99mRXsAWQatH8PVyjtxt-25">
          <mxGeometry relative="1" as="geometry" />
        </mxCell>
        <mxCell id="99mRXsAWQatH8PVyjtxt-23" value="IF callback not udnedind" style="rhombus;whiteSpace=wrap;html=1;" vertex="1" parent="1">
          <mxGeometry x="270" y="380" width="80" height="80" as="geometry" />
        </mxCell>
        <mxCell id="99mRXsAWQatH8PVyjtxt-29" value="" style="edgeStyle=orthogonalEdgeStyle;rounded=0;orthogonalLoop=1;jettySize=auto;html=1;" edge="1" parent="1" source="99mRXsAWQatH8PVyjtxt-25" target="99mRXsAWQatH8PVyjtxt-27">
          <mxGeometry relative="1" as="geometry" />
        </mxCell>
        <mxCell id="99mRXsAWQatH8PVyjtxt-25" value="call the call back funtion" style="rounded=1;whiteSpace=wrap;html=1;fillColor=#f8cecc;gradientColor=#ea6b66;strokeColor=#b85450;" vertex="1" parent="1">
          <mxGeometry x="430" y="330" width="120" height="60" as="geometry" />
        </mxCell>
        <mxCell id="99mRXsAWQatH8PVyjtxt-27" value="end" style="ellipse;whiteSpace=wrap;html=1;" vertex="1" parent="1">
          <mxGeometry x="447.5" y="420" width="85" height="50" as="geometry" />
        </mxCell>
      </root>
    </mxGraphModel>
  </diagram>
</mxfile>
